<svg width="1211" height="1211" viewBox="0 0 1211 1211" fill="none" xmlns="http://www.w3.org/2000/svg">
<path d="M685.984 696.178C696.072 688.613 703.638 676.005 711.204 665.918C996.19 791.999 1197.95 607.922 1210.56 605.4C1210.56 605.4 1157.6 565.055 1076.89 534.795C981.058 618.008 875.134 660.875 738.946 660.875C728.858 660.875 721.292 660.875 713.726 660.875C718.77 648.267 723.814 635.659 723.814 623.051C1034.02 630.616 1152.55 383.499 1162.64 375.934C1162.64 375.934 1099.59 358.283 1013.84 360.805C955.838 476.798 867.568 562.533 726.336 615.486C726.336 612.965 726.336 610.443 726.336 607.922C726.336 597.835 723.814 585.227 721.292 575.141C1011.32 461.669 1026.45 189.336 1034.02 176.728C1034.02 176.728 968.448 184.293 890.266 219.595C882.7 350.718 832.26 461.669 721.292 565.054C716.248 552.446 711.204 539.838 703.638 529.752C928.096 315.416 837.304 58.2129 839.826 45.6049C839.826 45.6049 781.82 78.3857 723.814 141.426C766.688 264.984 764.166 388.542 698.594 524.709C691.028 514.622 678.418 507.058 668.33 499.493C791.908 217.074 607.802 12.8241 605.28 0.216064C605.28 0.216064 564.928 53.1697 534.664 133.861C620.412 232.203 665.808 345.675 658.242 496.971C645.632 491.928 633.022 486.885 620.412 486.885C627.978 176.728 380.822 58.2129 373.256 48.1265C373.256 48.1265 355.602 111.166 358.124 196.901C474.136 254.898 559.884 343.154 612.846 484.363C610.324 484.363 607.802 484.363 605.28 484.363C595.192 484.363 582.582 486.885 572.494 489.406C461.526 199.422 189.15 184.293 176.54 176.728C176.54 176.728 184.106 242.29 219.414 320.459C353.08 328.024 461.526 378.456 564.928 489.406C552.318 494.45 539.708 499.493 529.62 507.058C315.25 282.635 58.006 373.413 45.396 370.891C45.396 370.891 78.182 428.888 141.232 486.885C264.81 444.018 388.388 446.539 524.576 512.101C514.488 519.666 506.922 532.274 499.356 542.36C216.892 418.802 12.61 602.879 0 605.4C0 605.4 52.962 645.746 133.666 676.005C229.502 592.792 335.426 549.925 471.614 549.925C481.702 549.925 489.268 549.925 496.834 549.925C491.79 562.533 486.746 575.141 486.746 587.749C176.54 580.184 58.006 827.301 47.918 834.866C47.918 834.866 110.968 852.517 196.716 849.995C254.722 731.48 342.992 648.267 484.224 595.314C484.224 597.835 484.224 600.357 484.224 602.878C484.224 612.965 486.746 625.573 489.268 635.659C199.238 749.131 184.106 1021.46 176.54 1034.07C176.54 1034.07 242.112 1026.51 320.294 991.205C327.86 860.082 378.3 749.131 489.268 645.746C494.312 658.354 499.356 670.962 506.922 681.048C282.464 895.384 373.256 1152.59 370.734 1165.2C370.734 1165.2 428.74 1132.41 486.746 1069.37C443.872 945.816 446.394 822.258 511.966 686.091C519.532 696.178 532.142 703.743 542.23 711.307C416.13 996.248 600.236 1197.98 602.758 1210.58C602.758 1210.58 643.11 1157.63 673.374 1076.94C587.626 978.597 542.23 865.125 549.796 713.829C562.406 718.872 575.016 723.915 587.626 723.915C580.06 1034.07 827.216 1152.59 834.782 1162.67C834.782 1162.67 852.436 1099.63 849.914 1013.9C733.902 955.903 648.154 867.646 595.192 726.437C597.714 726.437 600.236 726.437 602.758 726.437C612.846 726.437 625.456 723.915 635.544 721.394C749.034 1011.38 1021.41 1026.51 1034.02 1034.07C1034.02 1034.07 1026.45 968.511 991.146 890.341C857.48 882.776 749.034 832.344 645.632 721.394C658.242 716.351 670.852 711.307 680.94 703.742C895.31 928.165 1152.55 837.387 1165.16 839.909C1165.16 839.909 1132.38 781.912 1069.33 723.915C945.75 761.739 822.172 759.218 685.984 696.178ZM605.28 688.613C559.884 688.613 522.054 650.789 522.054 605.4C522.054 560.011 559.884 522.187 605.28 522.187C650.676 522.187 688.506 560.011 688.506 605.4C688.506 650.789 650.676 688.613 605.28 688.613Z" fill="white"/>
</svg>
